<?xml version="1.0" encoding="UTF-8" standalone="no"?>
<!-- Created with Inkscape (http://www.inkscape.org/) -->

<svg
   version="1.1"
   id="svg228"
   width="301.88495"
   height="681.77802"
   viewBox="0 0 301.88495 681.77803"
   xmlns="http://www.w3.org/2000/svg"
   xmlns:svg="http://www.w3.org/2000/svg">
  <defs
     id="defs232" />
  <g
     id="g234"
     transform="translate(-72.666668,-0.46263603)">
    <path
       style="fill:#000000;stroke-width:1.33333"
       d="M 114.15699,681.20296 C 98.997295,677.58741 84.224253,665.06416 76.913308,649.63113 l -4.24664,-8.96444 V 435.33335 230.00001 l 4.521592,-9.25175 c 5.790681,-11.84847 14.980474,-21.03827 26.49074,-26.49075 l 8.98767,-4.2575 68.93999,-0.37888 68.93998,-0.37888 0.39335,-77.62113 0.39335,-77.621119 3.84724,-8.329968 c 4.40974,-9.54789 12.63392,-17.8409943 21.91853,-22.1022403 9.66139,-4.43416917 25.16999,-4.07852857 35.11495,0.8052502 8.28863,4.0703797 15.34865,11.0736391 20.06153,19.9002111 l 3.05775,5.726747 0.71731,80.666669 c 0.39452,44.36667 0.84452,80.80656 1,80.97754 0.15548,0.17098 3.26054,1.81986 6.90013,3.66418 9.05915,4.59062 15.59375,10.5922 21.55005,19.79226 9.7631,15.07997 9.29532,3.22596 8.8748,224.89937 l -0.37562,198 -3.09042,7.65228 c -6.50257,16.10123 -17.28682,27.25819 -32.24292,33.35722 l -7.33333,2.9905 -106,0.21875 c -61.24654,0.1264 -108.18547,-0.30249 -111.17635,-1.01581 z M 240.66667,623.7707 c 17.48709,-4.42961 36.07349,-20.33964 44.12891,-37.77451 18.86137,-40.823 -3.59846,-88.55292 -46.42027,-98.64881 -23.61509,-5.56763 -45.51133,0.85781 -63.14413,18.52961 -14.5035,14.53556 -20.51963,29.23705 -20.54868,50.21436 -0.0323,23.24348 9.89248,43.15178 28.24849,56.6647 16.62569,12.23914 37.31764,16.18669 57.73568,11.01465 z m 87.03662,-225.43735 -0.36995,-19 L 223,378.99189 118.66667,378.65043 v 19.34146 19.34146 h 104.70328 104.70327 z m 0.29672,-57.00001 V 322.66668 H 223.33334 118.66667 v 18.66666 18.66667 h 104.66667 104.66667 z m -0.29672,-57 0.36993,-19 H 223.36995 118.66667 v 19.34146 19.34146 L 223,303.6748 327.33334,303.33334 Z"
       id="path346" />
  </g>
</svg>
