<?xml version="1.0" encoding="UTF-8" standalone="no"?>
<!-- Created with Inkscape (http://www.inkscape.org/) -->

<svg
   width="170.15961mm"
   height="180.61404mm"
   viewBox="0 0 170.15961 180.61404"
   version="1.1"
   id="svg430"
   xml:space="preserve"
   xmlns="http://www.w3.org/2000/svg"
   xmlns:svg="http://www.w3.org/2000/svg"><defs
     id="defs427" /><g
     id="layer1"
     transform="translate(-21.983673,-45.890852)"><path
       style="fill:#000000;stroke-width:0.352778"
       d="m 84.500326,226.17412 c 0,-0.18193 2.933404,-18.18242 6.518678,-40.00109 3.585273,-21.81867 7.153186,-43.53763 7.928694,-48.26436 0.775508,-4.72672 1.489382,-9.03061 1.586392,-9.56418 0.12355,-0.6796 0.0287,-0.97014 -0.31653,-0.97014 -0.271106,0 -1.809834,-0.67469 -3.4194,-1.49931 -4.305085,-2.20559 -7.505231,-5.4836 -9.585897,-9.81914 -1.864314,-3.88471 -2.359159,-5.97923 -2.359159,-9.98554 0,-6.197318 2.041536,-11.087005 6.513506,-15.600503 4.443525,-4.484794 9.56373,-6.63713 15.71149,-6.604505 6.0968,0.03235 11.30938,2.189261 15.55222,6.435312 4.561,4.564465 6.67278,9.545049 6.67278,15.737616 0,3.91355 -0.62787,6.50775 -2.50123,10.33436 -1.96283,4.00937 -5.46855,7.53384 -9.5016,9.55245 -1.59254,0.79709 -3.12789,1.44926 -3.41188,1.44926 -0.37533,0 -0.46314,0.26495 -0.32153,0.97014 0.23631,1.17676 16.08902,97.71308 16.08902,97.97536 0,0.10178 -10.16,0.18505 -22.57778,0.18505 -13.815663,0 -22.577774,-0.12837 -22.577774,-0.33078 z M 44.963141,164.50421 C 32.250542,150.64581 24.610788,134.08814 22.403127,115.60978 21.486189,107.93491 22.115755,96.034937 23.870313,87.877176 26.957586,73.523002 35.859174,56.725956 45.235077,47.562462 l 1.710358,-1.67161 5.957694,5.965436 5.957693,5.965436 -2.211479,2.408951 c -9.523799,10.374214 -15.38835,23.24592 -17.331395,38.039507 -0.68314,5.201168 -0.229012,15.954798 0.901321,21.343058 2.602095,12.40409 7.868936,22.77837 16.52283,32.5456 2.108045,2.37924 2.110373,2.38434 1.441094,3.15483 -1.120479,1.28991 -11.035251,11.21901 -11.202822,11.21901 -0.08606,0 -0.993811,-0.91281 -2.01723,-2.02847 z m 116.373269,-4.23236 -5.88448,-5.91 1.58222,-1.76389 c 8.82919,-9.84298 14.24193,-20.44966 16.96651,-33.24721 0.88842,-4.17297 0.9587,-5.11533 0.96699,-12.96668 0.0101,-9.5076 -0.36685,-12.452624 -2.50564,-19.579165 -3.01234,-10.037198 -8.11091,-19.115452 -14.87532,-26.48621 l -2.13,-2.320933 5.96677,-5.959028 5.96678,-5.959028 1.45063,1.400794 c 0.79785,0.770437 2.73402,2.988294 4.30261,4.928572 11.41944,14.125412 18.01751,31.168279 18.88312,48.775328 0.93737,19.06649 -3.777,36.58137 -13.99237,51.98462 -2.8598,4.31214 -9.60324,12.63085 -10.45766,12.90055 -0.19563,0.0618 -3.00371,-2.54722 -6.24016,-5.79772 z M 66.861438,141.29255 C 57.440225,130.43122 52.984864,117.08961 53.849131,102.32713 54.523187,90.813639 59.500031,79.05247 67.359066,70.400738 l 1.922734,-2.116666 5.551586,5.528446 5.55159,5.528448 -1.761765,2.056275 c -3.801657,4.437176 -6.597558,9.782468 -8.128518,15.540376 -0.795147,2.990533 -0.918958,4.176403 -0.930995,8.917283 -0.01563,6.15121 0.385981,8.51083 2.328862,13.68336 1.483823,3.95039 4.039288,8.26525 6.52235,11.0129 1.018646,1.12719 1.852083,2.22518 1.852083,2.43996 0,0.43246 -10.439336,10.96936 -10.852965,10.95439 -0.142744,-0.005 -1.29141,-1.19899 -2.55259,-2.65296 z m 72.404432,-2.72058 c -2.95716,-2.96178 -5.37666,-5.51969 -5.37666,-5.68424 0,-0.16455 0.79289,-1.16673 1.76198,-2.22706 3.66378,-4.00875 6.58141,-9.79734 8.19856,-16.26593 0.63007,-2.52025 0.76444,-4.05356 0.74841,-8.53984 -0.017,-4.75708 -0.14129,-5.926747 -0.9559,-8.995829 -1.27845,-4.816588 -4.16701,-10.560226 -7.20958,-14.335626 l -2.45535,-3.046739 5.54994,-5.541806 5.54994,-5.541807 1.81196,2.062156 c 6.92809,7.884672 11.16137,16.745469 12.90541,27.012685 0.74493,4.385416 0.76877,12.467536 0.0498,16.888476 -1.67904,10.32463 -5.93768,19.45103 -12.61284,27.02969 -1.15896,1.31583 -2.21561,2.43258 -2.34811,2.48168 -0.1325,0.0491 -2.6604,-2.33402 -5.61757,-5.29581 z"
       id="path490" /></g></svg>
