<?xml version="1.0" encoding="UTF-8" standalone="no"?>
<svg
   xml:space="preserve"
   width="682.6356"
   height="682.6356"
   viewBox="0 0 180.614 180.614"
   version="1.1"
   id="svg2065"
   sodipodi:docname="repeater_reachable.svg"
   inkscape:version="1.2.2 (b0a8486541, 2022-12-01)"
   xmlns:inkscape="http://www.inkscape.org/namespaces/inkscape"
   xmlns:sodipodi="http://sodipodi.sourceforge.net/DTD/sodipodi-0.dtd"
   xmlns="http://www.w3.org/2000/svg"
   xmlns:svg="http://www.w3.org/2000/svg"><defs
     id="defs2069" /><sodipodi:namedview
     id="namedview2067"
     pagecolor="#ffffff"
     bordercolor="#666666"
     borderopacity="1.0"
     inkscape:showpageshadow="2"
     inkscape:pageopacity="0.0"
     inkscape:pagecheckerboard="0"
     inkscape:deskcolor="#d1d1d1"
     showgrid="false"
     inkscape:zoom="0.34571885"
     inkscape:cx="341.31781"
     inkscape:cy="345.65659"
     inkscape:window-width="2560"
     inkscape:window-height="1381"
     inkscape:window-x="0"
     inkscape:window-y="27"
     inkscape:window-maximized="1"
     inkscape:current-layer="svg2065" /><path
     d="M84.5003 226.1741c0-.182 2.9334-18.1824 6.5187-40.001a382619.241 382619.241 0 0 0 7.9287-48.2644c.7755-4.7268 1.4894-9.0306 1.5864-9.5642.1235-.6796.0287-.9702-.3165-.9702-.2711 0-1.8099-.6746-3.4194-1.4993-4.3051-2.2056-7.5053-5.4836-9.586-9.8191-1.8643-3.8847-2.3591-5.9792-2.3591-9.9855 0-6.1974 2.0415-11.087 6.5135-15.6005 4.4435-4.4848 9.5637-6.6372 15.7115-6.6045 6.0968.0323 11.3094 2.1892 15.5522 6.4353 4.561 4.5644 6.6728 9.545 6.6728 15.7376 0 3.9135-.6279 6.5077-2.5012 10.3343-1.9629 4.0094-5.4686 7.5339-9.5016 9.5525-1.5926.797-3.128 1.4492-3.412 1.4492-.3752 0-.463.265-.3214.9702.2363 1.1767 16.089 97.713 16.089 97.9753 0 .1018-10.16.1851-22.5778.1851-13.8157 0-22.5778-.1284-22.5778-.3308zm-39.5372-61.6699c-12.7126-13.8584-20.3523-30.416-22.56-48.8944-.917-7.6749-.2873-19.5749 1.4672-27.7326C26.9576 73.523 35.8592 56.726 45.2351 47.5625l1.7103-1.6716 5.9577 5.9654 5.9577 5.9654-2.2115 2.409C47.1255 70.6049 41.261 83.4766 39.318 98.2702c-.683 5.2011-.229 15.9548.9014 21.343 2.602 12.4041 7.869 22.7784 16.5228 32.5456 2.108 2.3793 2.1104 2.3844 1.441 3.1549-1.1204 1.2899-11.0352 11.219-11.2027 11.219-.086 0-.9938-.9128-2.0173-2.0285zm116.3733-4.2323-5.8845-5.91 1.5823-1.764c8.8291-9.843 14.2419-20.4496 16.9665-33.2472.8884-4.173.9587-5.1153.967-12.9666.01-9.5076-.3669-12.4527-2.5057-19.5792-3.0123-10.0372-8.1109-19.1154-14.8753-26.4862l-2.13-2.321 5.9668-5.959 5.9667-5.959 1.4507 1.4008c.7978.7704 2.734 2.9883 4.3026 4.9286 11.4194 14.1254 18.0175 31.1683 18.8831 48.7753.9374 19.0665-3.777 36.5814-13.9924 51.9846-2.8598 4.3122-9.6032 12.6309-10.4576 12.9006-.1957.0618-3.0037-2.5472-6.2402-5.7977zm-94.475-18.9793c-9.4212-10.8614-13.8765-24.203-13.0123-38.9655.674-11.5135 5.651-23.2746 13.51-31.9264l1.9227-2.1166 5.5516 5.5284 5.5516 5.5285-1.7618 2.0562c-3.8016 4.4372-6.5975 9.7825-8.1285 15.5404-.7952 2.9905-.919 4.1764-.931 8.9173-.0156 6.1512.386 8.5108 2.3289 13.6834 1.4838 3.9504 4.0392 8.2652 6.5223 11.0129 1.0187 1.1272 1.852 2.2251 1.852 2.44 0 .4324-10.4392 10.9693-10.8529 10.9543-.1427-.005-1.2914-1.199-2.5526-2.653zm72.4045-2.7206c-2.9572-2.9618-5.3767-5.5197-5.3767-5.6843 0-.1645.7929-1.1667 1.762-2.227 3.6638-4.0088 6.5814-9.7974 8.1986-16.266.63-2.5202.7644-4.0535.7484-8.5398-.017-4.757-.1413-5.9267-.956-8.9958-1.2784-4.8166-4.167-10.5603-7.2095-14.3357l-2.4554-3.0467 5.55-5.5418 5.55-5.5418 1.8119 2.0621c6.928 7.8847 11.1613 16.7455 12.9054 27.0127.745 4.3855.7687 12.4676.0498 16.8885-1.679 10.3246-5.9377 19.451-12.6129 27.0297-1.159 1.3158-2.2156 2.4326-2.348 2.4817-.1326.049-2.6605-2.334-5.6176-5.2958z"
     style="fill:#0000ff;stroke-width:0.352778"
     transform="translate(-17.2212 -45.8909)"
     id="path2055" /><path
     d="M254.5421 679.4475c0-3.9772 57.2048-354.5397 59.295-363.3712 1.2717-5.3737-.7575-7.6062-12.2534-13.4812-29.3793-15.0144-45.4388-41.7097-45.4388-75.532 0-24.7185 6.7811-41.1186 24.1442-58.3927 17.6803-17.5897 33.912-24.5727 57.4515-24.7162 25.6044-.156 45.3517 8.2712 62.6055 26.7169 17.387 18.588 22.6199 31.6165 22.6501 56.392.041 33.4657-14.181 57.9556-43.151 74.3053-14.5737 8.2249-15.4316 9.3245-13.926 17.849 2.8423 16.0906 59.2819 360.9145 59.2819 362.1884 0 .6765-38.3983 1.23-85.3295 1.23-60.2345 0-85.3295-.9377-85.3295-3.1883z"
     style="fill:#a00;stroke-width:10.9324"
     transform="scale(0)"
     id="path2057" /><path
     d="M180.6262 352.1648c-17.953-23.7542-31.7743-52.9086-37.6918-79.5065-7.0879-31.859-4.659-81.9088 5.3479-110.1985 8.6216-24.3735 22.1174-48.0098 37.1919-65.1373l10.4764-11.9033 19.895 18.5197c10.9424 10.1858 20.3298 19.6047 20.861 20.9309.5312 1.3262-3.7068 8.7765-9.4177 16.5564-20.2383 27.57-25.9747 44.4208-27.1835 79.852-.9159 26.8434-.1114 34.7058 5.1455 50.291 5.2102 15.4469 16.6778 35.8921 30.4506 54.2898 2.1133 2.8228-2.3682 9.0733-17.2775 24.0978-11.072 11.1575-21.0317 20.2863-22.1327 20.2863-1.101 0-8.1503-8.1352-15.665-18.0783z"
     style="fill:red;stroke-width:10.9324"
     transform="scale(0)"
     id="path2059" /><path
     d="M96.7106 438.9406c-48.1033-53.1594-79.392-135.4923-79.3384-208.7715.0227-31.0689 6.8304-74.7322 15.8332-101.551 13.667-40.7132 40.7385-88.1945 65.9105-115.6017l13.2832-14.4627 21.8986 21.6216c12.0442 11.8918 21.8986 22.665 21.8986 23.9404 0 1.2754-7.2445 11.0703-16.099 21.7664-18.2533 22.0496-38.997 61.7994-47.886 91.7605-8.4554 28.4999-10.725 90.2479-4.4352 120.6626 8.9782 43.4136 29.922 85.647 60.3354 121.6667l9.2266 10.9273-21.4693 21.6136c-11.8081 11.8874-22.3575 21.6135-23.443 21.6135-1.0856 0-8.1574-6.8336-15.7152-15.1857zM460.8366 349.4447l-20.7687-21.1432 8.6923-10.1238c20.4016-23.7615 31.3988-55.3579 31.3988-90.2124 0-31.7256-6.8067-53.67-25.2661-81.4557l-13.1611-19.8104 20.848-20.6849 20.8481-20.6848 10.1876 11.57c14.6505 16.6388 29.1044 42.4 37.9822 67.6956 6.9193 19.7155 7.719 26.1328 7.7848 62.468.0635 35.0566-.845 43.2148-6.7642 60.743-9.0242 26.723-23.487 52.6233-38.6807 69.27l-12.3323 13.5118z"
     style="fill:red;stroke-width:10.9324"
     transform="scale(0)"
     id="path2061" /><path
     d="M545.3484 433.793c-11.9908-11.6268-21.8015-21.9891-21.8015-23.0273 0-1.0381 7.1772-10.8942 15.9494-21.9024 19.612-24.6113 35.9098-55.6175 46.2767-88.0408 9.4204-29.463 12.77-81.267 7.4588-115.3543-6.4398-41.331-26.9662-86.0353-56.2323-122.4679l-14.0263-17.461 22.7039-22.9339 22.704-22.9338 10.912 12.4575c82.489 94.1704 104.816 225.6608 57.6152 339.3126-13.5254 32.5668-43.349 78.7376-62.3847 96.5796l-7.3738 6.9114z"
     style="fill:red;stroke-width:10.9324"
     transform="scale(0)"
     id="path2063" /></svg>
