<?xml version="1.0" encoding="UTF-8" standalone="no"?>
<svg
   xml:space="preserve"
   width="337.349"
   height="337.349"
   viewBox="0 0 89.257 89.257"
   version="1.1"
   id="svg2234"
   sodipodi:docname="room-server_reachable.svg"
   inkscape:version="1.2.2 (b0a8486541, 2022-12-01)"
   xmlns:inkscape="http://www.inkscape.org/namespaces/inkscape"
   xmlns:sodipodi="http://sodipodi.sourceforge.net/DTD/sodipodi-0.dtd"
   xmlns="http://www.w3.org/2000/svg"
   xmlns:svg="http://www.w3.org/2000/svg"><defs
   id="defs2238" /><sodipodi:namedview
   id="namedview2236"
   pagecolor="#ffffff"
   bordercolor="#666666"
   borderopacity="1.0"
   inkscape:showpageshadow="2"
   inkscape:pageopacity="0.0"
   inkscape:pagecheckerboard="0"
   inkscape:deskcolor="#d1d1d1"
   showgrid="false"
   inkscape:zoom="0.69957226"
   inkscape:cx="168.6745"
   inkscape:cy="169.38922"
   inkscape:window-width="2560"
   inkscape:window-height="1381"
   inkscape:window-x="0"
   inkscape:window-y="27"
   inkscape:window-maximized="1"
   inkscape:current-layer="svg2234" />
  <path
   d="M141.983 276.115c-.486-.332-1.001-.774-1.146-.982-.144-.208-.264-.275-.267-.149-.003.126-2.916-1.514-6.472-3.644l-6.467-3.874-4.697.21c-4.687.209-10.694-.303-11.51-.98-.22-.182-.493-.235-.61-.119-.398.399-7.046-2.155-7.046-2.707 0-.137-.22-.25-.488-.25-1.159 0-9.299-6.158-8.8-6.657.098-.099 3.836-.235 8.306-.303 4.47-.069 8.127-.216 8.127-.328 0-.112 1.326-.415 2.947-.674 8.133-1.297 16.246-5.333 21.844-10.867 4.516-4.465 7.668-10.027 9.395-16.583.792-3.005.92-4.264.958-9.45.03-4.007.171-5.984.429-5.984.651-.001 5.689 5.415 7.117 7.652 3.537 5.539 4.594 9.526 4.395 16.573-.158 5.6-.833 8.031-3.562 12.83-1.676 2.948-6.095 7.884-8.904 9.946l-1.753 1.287v7.829c0 8.408-.01 8.447-1.796 7.224zm-62.15-23.89v-8.06l-1.919-1.853c-2.652-2.562-4.777-5.595-6.568-9.378-2.062-4.357-2.574-7.054-2.582-13.603-.005-4.51.12-5.818.75-7.86 1.482-4.804 4.009-9.03 7.528-12.588 2.636-2.666 6.175-5.47 6.496-5.149.124.124.224.057.224-.148 0-.507 4.915-3.058 5.36-2.782.196.12.356.06.356-.133 0-.475 3.422-1.726 7.127-2.606 2.64-.627 3.916-.7 10.007-.57 7.713.165 8.607.357 14.525 3.116 7.867 3.668 14.417 10.247 17.515 17.593.66 1.566 1.11 2.993 1 3.172-.111.179-.048.326.14.326.543 0 1.207 4.525 1.182 8.05-.014 1.873-.32 4.497-.73 6.252-.763 3.27-3.123 9.276-3.645 9.276-.177 0-.284.12-.237.268.123.39-2.202 3.661-2.603 3.661-.187 0-.34.223-.34.495 0 .664-3.986 4.358-6.512 6.035-4.074 2.704-9.163 4.76-13.493 5.454-2.077.332-11.062.472-14.112.22l-2.858-.236-3.904 2.214c-2.148 1.218-4.037 2.133-4.198 2.033-.16-.1-.293-.03-.293.153 0 .296-7.51 4.71-8.015 4.71-.11 0-.201-3.628-.201-8.062zm8.818-29.115c1.858-.705 2.614-1.726 2.606-3.522-.009-1.728-.65-2.855-2.023-3.558-2.775-1.419-6.212 1.169-5.602 4.218.254 1.271 1.637 2.778 2.748 2.994l1.02.2c.135.027.698-.123 1.251-.333zm18.41-.465c.71-.444 1.708-2.34 1.708-3.245 0-1.807-2.122-3.769-4.078-3.769-1.084 0-3.461 1.08-3.224 1.463.093.15.006.375-.194.498-.2.124-.363.991-.363 1.928 0 1.304.188 1.88.804 2.458 1.578 1.482 3.63 1.738 5.347.667zm16.522.338c1.378-.576 2.334-2.131 2.334-3.797 0-.804-.347-1.473-1.215-2.34-.995-.996-1.485-1.215-2.715-1.215-3.016 0-4.963 3.45-3.342 5.923.65.993 2.107 1.9 3.086 1.922.35.008 1.183-.214 1.852-.493z"
   style="fill:#0000ff;stroke-width:0.357243"
   transform="translate(-68.764 -187.441)"
   id="path2228" />
  <path
   d="M42.353 274.854c-.497-.496-.903-14.245-.903-30.553v-29.65l-7.829-8.02c-15.058-15.423-27.648-37.895-31.553-56.32-2.427-11.45-2.733-46.164-.491-55.7C4.11 83.83 16.43 59.977 23.869 51.45c14.194-16.272 32-30.27 46.193-36.312a653.01 653.01 0 0 0 13.553-6.006c3.93-1.803 12.613-4.663 19.296-6.355C113.864.005 117.802-.234 142.93.355c30.795.722 35.94 1.825 56.3 12.07 52.168 26.252 80.436 75.35 72.412 125.772-2.304 14.472-10.386 36.047-17.57 46.899-17.7 26.739-43.849 45.477-75.125 53.836-9.377 2.506-15.863 2.986-43.878 3.246l-32.874.306-17.152 9.287c-9.433 5.109-19.724 10.885-22.869 12.836-12.582 7.808-18.963 11.107-19.822 10.247zm34.046-141.092c5.836-2.439 7.946-5.983 7.885-13.248-.07-8.354-5.335-13.316-14.131-13.316-5.537 0-12.716 6.342-13.754 12.15-1.293 7.232 5.835 15.976 13.326 16.346 1.008.05 4.011-.82 6.674-1.932zm65.047.399c6.14-2.14 10.477-11.05 8.349-17.155-3.9-11.185-22.079-13.33-26.717-3.15-3.718 8.161-.626 16.325 7.53 19.875 5.527 2.405 5.207 2.393 10.838.43zm69.702-3.054c1.836-1.835 3.707-5.615 4.159-8.399.695-4.284.118-5.862-3.766-10.285-3.834-4.367-5.52-5.225-10.266-5.225-14.37 0-19.672 19.44-7.21 26.43 5.12 2.87 12.83 1.733 17.083-2.521z"
   style="fill:#ff2a2a;stroke-width:5.40213"
   transform="scale(0)"
   id="path2230" />
  <path
   d="M274.759 333.804c-2.374-1.998-4.714-3.633-5.2-3.633-.484 0-11.124-6.11-23.644-13.578l-22.762-13.579-24.746-.034c-13.61-.019-27.318-.66-30.463-1.427-3.144-.767-7.786-1.752-10.314-2.19-11.21-1.944-33.046-13.03-47.245-23.985-10.906-8.415-14.218-12.118-11.6-12.968 1.09-.353 14.845-.948 30.568-1.32 29.831-.709 45.616-3.025 65.26-9.577 38.691-12.906 69.077-39.201 84.918-73.486 8.577-18.564 10.805-29.046 11.934-56.158.565-13.549 1.535-25.126 2.155-25.727 1.875-1.815 23.57 22.456 30.327 33.925 10.455 17.75 12.656 26.948 12.656 52.885 0 25.434-2.245 35.24-11.746 51.306-6.863 11.605-23.438 30.662-33.03 37.978l-7.394 5.638-.142 17.215c-.197 23.915-1.687 41.184-3.609 41.817-.883.292-3.549-1.105-5.923-3.102z"
   style="fill:#a00;stroke-width:5.40213"
   transform="scale(0)"
   id="path2232" />
</svg>
