<?xml version="1.0" encoding="UTF-8" standalone="no"?>
<!-- Created with Inkscape (http://www.inkscape.org/) -->

<svg
   width="89.257217mm"
   height="89.248657mm"
   viewBox="0 0 89.257217 89.248657"
   version="1.1"
   id="svg5"
   xml:space="preserve"
   xmlns="http://www.w3.org/2000/svg"
   xmlns:svg="http://www.w3.org/2000/svg"><defs
     id="defs2" /><g
     id="layer1"
     transform="translate(-68.764185,-187.44133)"><path
       style="fill:#000000;stroke-width:0.357243"
       d="m 141.9832,276.11532 c -0.48581,-0.33246 -1.0014,-0.77454 -1.14575,-0.98242 -0.14436,-0.20787 -0.26493,-0.27489 -0.26794,-0.14894 -0.003,0.12596 -2.91534,-1.51402 -6.47186,-3.64439 l -6.46639,-3.87341 -4.69747,0.20954 c -4.68721,0.20908 -10.69407,-0.30225 -11.5105,-0.97982 -0.21865,-0.18147 -0.49256,-0.23494 -0.60869,-0.11882 -0.39873,0.39874 -7.04662,-2.15534 -7.04662,-2.70727 0,-0.13691 -0.2194,-0.24892 -0.48757,-0.24892 -1.15921,0 -9.29934,-6.15847 -8.800756,-6.65827 0.09824,-0.0985 3.835887,-0.23486 8.305886,-0.30306 4.46999,-0.0682 8.12727,-0.2156 8.12728,-0.32756 2e-5,-0.11196 1.3263,-0.41507 2.94729,-0.67358 8.13321,-1.29703 16.24553,-5.33293 21.84353,-10.86719 4.51678,-4.46536 7.66832,-10.02769 9.39566,-16.58298 0.79195,-3.00549 0.91954,-4.26431 0.95784,-9.45052 0.0296,-4.00658 0.17123,-5.9834 0.42878,-5.98383 0.65132,-0.001 5.68875,5.41478 7.11743,7.65213 3.53684,5.53878 4.59408,9.52552 4.39496,16.57295 -0.15821,5.5994 -0.8334,8.03136 -3.56228,12.8308 -1.6758,2.94735 -6.09497,7.88349 -8.90364,9.94524 l -1.75315,1.28694 v 7.82893 c 0,8.40848 -0.01,8.447 -1.79604,7.22445 z M 79.832678,252.22541 v -8.06118 l -1.918203,-1.85232 c -2.652892,-2.56177 -4.777536,-5.59531 -6.568416,-9.37828 -2.062351,-4.35643 -2.574212,-7.05342 -2.581721,-13.60307 -0.0052,-4.51003 0.119514,-5.81786 0.749292,-7.85935 1.48191,-4.80379 4.009022,-9.02931 7.528544,-12.5883 2.635992,-2.66556 6.174572,-5.47009 6.49611,-5.14856 0.123239,0.12324 0.22407,0.0564 0.22407,-0.14846 0,-0.50696 4.914219,-3.05779 5.360053,-2.78225 0.195712,0.12096 0.35584,0.0612 0.35584,-0.13274 0,-0.47474 3.421368,-1.72564 7.126934,-2.60571 2.640258,-0.62706 3.915329,-0.69967 10.006409,-0.56981 7.71302,0.16443 8.60766,0.3563 14.52515,3.11522 7.86714,3.66792 14.41689,10.24696 17.51535,17.59368 0.66021,1.56543 1.10987,2.99271 0.99922,3.17174 -0.11064,0.17902 -0.0474,0.32549 0.14049,0.32549 0.54296,0 1.20747,4.52594 1.18204,8.0507 -0.0135,1.87326 -0.3195,4.49693 -0.72912,6.25176 -0.76346,3.27075 -3.12387,9.2756 -3.64608,9.2756 -0.17683,0 -0.2834,0.12057 -0.2368,0.26793 0.1235,0.39065 -2.20142,3.66174 -2.60258,3.66174 -0.18704,0 -0.34008,0.22271 -0.34008,0.49491 0,0.66414 -3.98595,4.35754 -6.51235,6.03438 -4.0742,2.70415 -9.16327,4.76122 -13.49328,5.45417 -2.07669,0.33234 -11.06138,0.47277 -14.111111,0.22055 l -2.857947,-0.23636 -3.904717,2.21409 c -2.147594,1.21774 -4.036518,2.13262 -4.197609,2.03306 -0.161091,-0.0996 -0.292892,-0.0308 -0.292892,0.15281 0,0.29627 -7.511169,4.70975 -8.015373,4.70975 -0.110673,0 -0.201223,-3.62753 -0.201223,-8.06119 z m 8.818515,-29.11591 c 1.858185,-0.70405 2.614054,-1.72575 2.605327,-3.5216 -0.0084,-1.7283 -0.649092,-2.85518 -2.02272,-3.55766 -2.775073,-1.41919 -6.21182,1.16841 -5.601939,4.21782 0.254258,1.27129 1.636722,2.7775 2.747975,2.99396 0.426982,0.0832 0.886434,0.17311 1.021006,0.19987 0.134572,0.0268 0.69723,-0.12282 1.250351,-0.33239 z m 18.409667,-0.46487 c 0.71082,-0.44392 1.70853,-2.33875 1.70853,-3.24481 0,-1.80707 -2.12281,-3.76864 -4.07844,-3.76864 -1.08394,0 -3.46136,1.07898 -3.22392,1.46316 0.093,0.15053 0.006,0.37467 -0.19393,0.49808 -0.19968,0.12342 -0.36307,0.99068 -0.36307,1.92725 0,1.30414 0.18825,1.87971 0.80398,2.45816 1.57811,1.48255 3.63074,1.73853 5.34685,0.6668 z m 16.52187,0.33819 c 1.37834,-0.57591 2.33434,-2.131 2.33434,-3.79719 0,-0.8033 -0.34747,-1.47266 -1.21463,-2.33982 -0.99574,-0.99574 -1.48501,-1.21463 -2.71505,-1.21463 -3.01608,0 -4.96298,3.44953 -3.34263,5.9225 0.6509,0.99339 2.10713,1.90056 3.08618,1.92255 0.35015,0.008 1.18346,-0.21417 1.85179,-0.49341 z"
       id="path404" /></g></svg>
